<svg xmlns="http://www.w3.org/2000/svg" viewBox="0 0 414.26 391.813"><defs><style>.a,.b,.c{fill:none;stroke-miterlimit:10;}.a{stroke:#03f;}.b{stroke:#fff;}.c{stroke:#000;}</style></defs><title>newface</title><path class="a" d="M430.241,138.677h-100.5s-39,1.5-44.25,45v209.25s0,45.75,46.5,51h205.5s44.25.75,46.5-45,0-217.5,0-217.5-.75-32.25-39.75-42.75h-105l-.75-28.5s28.5-6.75,25.5-30.75c0,0,.255-27.75-28.755-26.25,0,0-19.245-2.25-29,20.25,0,0-5.25,30.75,24,36.75Z" transform="translate(-222.751 -52.615)"/><path class="a" d="M229.251,231.118v63.75c-2.25,9-6,0-6,0v-63.75S224.5,222.235,229.251,231.118Z" transform="translate(-222.751 -52.615)"/><path class="a" d="M241.931,210.317v107.25s4.5,6.375,6.75,0V210.317S247.181,204.692,241.931,210.317Z" transform="translate(-222.751 -52.615)"/><path class="a" d="M608.761,210.38V318.005s4.875,5.625,7.125,0V210.38S612.511,204.38,608.761,210.38Z" transform="translate(-222.751 -52.615)"/><path class="a" d="M630.511,233.255v62.25s4.125,6.375,6,0V235.13S636.136,228.755,630.511,233.255Z" transform="translate(-222.751 -52.615)"/><path class="b" d="M348.846,206.453s-32.01,18-16,50.865c0,0,29,47.88,73.005,5.88,0,0,12.99-16.83,0-43.92S348.846,206.453,348.846,206.453Z" transform="translate(-222.751 -52.615)"/><path class="b" d="M464.841,219.278s-27,46.5,34,61.17c0,0,54.99,4.245,41-57C539.841,223.448,506.841,175.358,464.841,219.278Z" transform="translate(-222.751 -52.615)"/><path class="b" d="M419.982,315.3c-11-1.29-6-9.7-6-9.7l16.5-29.01s3-7.83,7.995,0l16.005,24.51c1.245,3.75,3.195,8.01,3.15,10.05-.135,6.105-6.105,4.155-6.105,4.155" transform="translate(-222.751 -52.615)"/><path class="c" d="M344.665,356.291s77,27,181.995,0a6.585,6.585,0,0,0,0-9s-96,27-181.995,0C344.665,347.291,338.77,354.506,344.665,356.291Z" transform="translate(-222.751 -52.615)"/><circle class="a" cx="149.316" cy="196.813" r="20.22"/><circle class="a" cx="277.821" cy="196.813" r="20.22"/></svg>